<?xml version="1.0" standalone="no"?>
<!DOCTYPE svg PUBLIC "-//W3C//DTD SVG 20010904//EN"
 "http://www.w3.org/TR/2001/REC-SVG-20010904/DTD/svg10.dtd">
<svg version="1.0" xmlns="http://www.w3.org/2000/svg"
 width="349.000000pt" height="349.000000pt" viewBox="0 0 349.000000 349.000000"
 preserveAspectRatio="xMidYMid meet">
<metadata>
Created by potrace 1.14, written by Peter Selinger 2001-2017
</metadata>
<g transform="translate(0.000000,349.000000) scale(0.100000,-0.100000)"
fill="#000000" stroke="none">
<path d="M1605 3340 c-210 -18 -390 -68 -590 -165 -188 -91 -362 -213 -475
-331 -58 -61 -38 -53 85 34 240 169 576 299 921 357 147 25 173 26 420 23 145
-1 264 -2 264 -1 0 1 -35 13 -77 27 -151 47 -374 70 -548 56z"/>
<path d="M2691 2935 l-33 -95 -62 0 c-91 0 -196 -12 -190 -21 2 -4 51 -36 107
-70 56 -33 103 -62 104 -63 2 -1 -18 -53 -43 -115 -25 -62 -43 -115 -41 -118
3 -2 52 31 111 73 l106 76 64 -46 c111 -79 116 -75 61 55 -20 45 -34 83 -33
85 2 1 44 29 94 62 51 33 95 65 98 71 5 8 -26 11 -106 11 -62 0 -119 4 -125 8
-7 5 -24 40 -37 80 -39 113 -38 113 -75 7z"/>
<path d="M1354 2837 c-269 -338 -710 -798 -859 -896 -111 -73 -230 -128 -322
-150 l-78 -18 -3 -204 c-2 -173 1 -219 18 -309 23 -117 88 -378 100 -399 5 -9
19 8 44 52 20 36 122 188 227 338 209 297 253 371 294 498 l27 83 72 -6 c48
-5 88 -2 123 7 l52 14 98 -184 c54 -100 100 -183 103 -183 3 0 52 83 109 183
257 452 333 567 370 567 12 0 92 -120 266 -402 137 -222 254 -411 261 -421 10
-16 38 18 225 273 l214 291 20 -24 c11 -13 48 -63 82 -110 212 -290 553 -644
553 -573 0 30 -451 664 -594 834 -86 103 -97 101 -203 -25 -45 -54 -115 -131
-156 -172 l-75 -73 -24 53 c-30 63 -806 1038 -847 1063 -4 3 -48 -45 -97 -107z"/>
<path d="M790 512 c0 -18 52 -49 167 -101 355 -160 885 -280 1253 -284 148 -2
158 -1 230 27 156 59 462 226 414 226 -5 0 -79 -17 -164 -37 l-155 -36 -295
-4 c-238 -4 -317 -1 -410 12 -204 29 -401 73 -615 135 -182 54 -224 63 -317
67 -73 4 -108 2 -108 -5z"/>
</g>
</svg>
