<?xml version="1.0" standalone="no"?>
<!DOCTYPE svg PUBLIC "-//W3C//DTD SVG 20010904//EN"
 "http://www.w3.org/TR/2001/REC-SVG-20010904/DTD/svg10.dtd">
<svg version="1.0" xmlns="http://www.w3.org/2000/svg"
 width="175.000000pt" height="174.000000pt" viewBox="0 0 175.000000 174.000000"
 preserveAspectRatio="xMidYMid meet">

<g transform="translate(0.000000,174.000000) scale(0.100000,-0.100000)"
fill="black" stroke="none">
<path d="M756 1659 c-151 -20 -339 -109 -449 -212 l-52 -48 64 42 c189 124
453 196 683 187 112 -5 122 2 33 20 -79 16 -204 21 -279 11z"/>
<path d="M1349 1457 l-16 -42 -64 -5 -64 -5 53 -32 c28 -18 52 -37 52 -42 0
-5 -9 -30 -20 -56 -11 -26 -20 -49 -20 -52 0 -2 22 11 49 31 27 20 54 36 60
36 7 0 25 -10 41 -22 16 -12 32 -19 35 -16 3 3 -3 24 -14 48 l-19 44 51 33 52
32 -40 2 c-66 2 -87 12 -99 46 -16 47 -21 47 -37 0z"/>
<path d="M630 1354 c-52 -64 -151 -173 -220 -243 -132 -133 -212 -189 -307
-217 l-53 -15 0 -117 c0 -90 6 -140 26 -224 14 -59 29 -108 33 -108 4 0 13 10
18 23 6 12 61 94 122 181 65 93 120 183 132 218 l22 58 48 0 c26 0 54 3 62 6
10 4 28 -21 62 -86 26 -51 51 -88 55 -84 5 5 48 77 96 159 99 169 123 205 139
205 7 0 69 -92 139 -205 71 -113 131 -205 135 -205 3 0 53 64 110 141 57 77
106 137 110 132 4 -4 34 -44 66 -88 71 -93 241 -272 251 -263 13 14 -299 442
-332 455 -11 4 -41 -22 -95 -81 l-80 -86 -33 49 c-30 44 -315 401 -383 478
l-28 33 -95 -116z"/>
<path d="M400 245 c0 -10 100 -55 200 -89 167 -59 333 -89 485 -90 l130 -1
108 53 c59 30 107 57 107 61 0 4 -33 -1 -72 -12 -49 -13 -120 -21 -218 -24
-170 -6 -319 15 -519 72 -103 30 -221 46 -221 30z"/>
</g>
</svg>
